PathFileType	4	(X/Y/Z)	C:\Users\Basilio\Documents\Thesis Gigler\squatting_fais\c3dfiles\075\SJ_pre5\markers_experimental.trc
DataRate	CameraRate	NumFrames	NumMarkers	Units	OrigDataRate	OrigDataStartFrame	OrigNumFrames
200.000000	200.000000	4	61	mm	200.000000	1286	1470
Frame#	Time	FHD			LBHD			RBHD			C7			T10			CLAV			LSHO			LUUPA			LMUPA			LDUPA			LLEP			LMEP			LRAD			LUL			LRFIN			RSHO			RUPA1			RMUPA			RDUPA			RLEP			RMEP			RRAD			RUL			RUFIN			LASI			RASI			USACR			LSACR			RSACR			LTHI1			LTHI2			LTHI3			LTHI4			LLFC			LMFC			LTIB1			LTIB2			LTIB3			LTIB4			LLMAL			LMMAL			LHEE			LMT1			LMT2			LMT5			RTHI			RTHI2			RTHI3			RTHI4			RLFC			RMFC			RTIB1			RTIB2			RTIB3			RTIB4			RLMAL			RMMAL			RHEE			RMT1			RMT2			RMT5			
		X1	Y1	Z1	X2	Y2	Z2	X3	Y3	Z3	X4	Y4	Z4	X5	Y5	Z5	X6	Y6	Z6	X7	Y7	Z7	X8	Y8	Z8	X9	Y9	Z9	X10	Y10	Z10	X11	Y11	Z11	X12	Y12	Z12	X13	Y13	Z13	X14	Y14	Z14	X15	Y15	Z15	X16	Y16	Z16	X17	Y17	Z17	X18	Y18	Z18	X19	Y19	Z19	X20	Y20	Z20	X21	Y21	Z21	X22	Y22	Z22	X23	Y23	Z23	X24	Y24	Z24	X25	Y25	Z25	X26	Y26	Z26	X27	Y27	Z27	X28	Y28	Z28	X29	Y29	Z29	X30	Y30	Z30	X31	Y31	Z31	X32	Y32	Z32	X33	Y33	Z33	X34	Y34	Z34	X35	Y35	Z35	X36	Y36	Z36	X37	Y37	Z37	X38	Y38	Z38	X39	Y39	Z39	X40	Y40	Z40	X41	Y41	Z41	X42	Y42	Z42	X43	Y43	Z43	X44	Y44	Z44	X45	Y45	Z45	X46	Y46	Z46	X47	Y47	Z47	X48	Y48	Z48	X49	Y49	Z49	X50	Y50	Z50	X51	Y51	Z51	X52	Y52	Z52	X53	Y53	Z53	X54	Y54	Z54	X55	Y55	Z55	X56	Y56	Z56	X57	Y57	Z57	X58	Y58	Z58	X59	Y59	Z59	X60	Y60	Z60	X61	Y61	Z61	

1287	6.43	-328.1977539062501	1700.049682617188	-874.406433105469	-462.1341857910157	1570.86474609375	-948.5691528320315	-430.4088745117189	1607.2802734375	-793.6143798828127	-495.4876098632814	1459.804321289063	-889.2299804687502	-524.3351440429689	1137.7734375	-885.6599731445315	-347.0685119628907	1402.242309570313	-882.9571533203127	-375.1734313964844	1441.523315429688	-1043.01025390625	-402.622039794922	1285.658447265625	-1207.869506835938	-370.3847656250001	1249.764282226563	-1193.453369140625	-395.1577148437501	1225.023071289063	-1242.58203125	-388.6523742675782	1140.208129882813	-1264.946533203125	-472.2717590332032	1132.769775390625	-1227.898071289063	-391.3335876464845	950.5811767578127	-1102.2890625	-341.1739501953126	917.132995605469	-1147.963134765625	-351.2768554687501	942.2419433593752	-1053.187133789063	-388.0123596191407	1438.34423828125	-724.0061645507814	-429.8800354003907	1287.158935546875	-563.5452880859376	-401.9402160644532	1246.469604492188	-572.2245483398439	-435.979461669922	1226.8125	-526.4148559570314	-436.2667236328126	1156.973754882813	-502.8182983398439	-513.8576049804689	1133.97021484375	-528.6955566406251	-415.6802978515626	955.5488281250002	-673.2906494140626	-366.1030578613282	932.6744384765627	-618.7479858398439	-357.7375183105469	953.9290161132815	-717.4198608398439	-360.1626586914063	951.4815063476565	-1006.554931640625	-366.8886108398438	959.0615234375002	-760.3742065429689	-521.2273559570314	1036.236328125	-890.0227661132815	-527.4144897460939	1004.081604003906	-918.1574707031252	-528.0947875976564	1005.533508300781	-861.0449218750002	-385.354705810547	724.7326049804689	-1098.042846679688	-341.3777770996094	652.5335083007814	-1104.500732421875	-296.4101257324219	664.3550415039064	-1086.116577148438	-359.5717468261719	594.8099365234376	-1099.747192382813	-347.8769531250001	489.3487548828126	-1096.056640625	-302.9369812011719	475.8563232421876	-978.226013183594	-299.4530639648438	362.5947570800782	-1069.240844726563	-366.6398010253907	329.5948181152344	-1115.419067382813	-325.8218688964844	319.1553649902344	-1097.8359375	-337.7838134765626	240.0562591552735	-1069.557006835938	-429.3283691406251	100.6216278076172	-1084.746704101563	-389.7152709960939	116.3263092041016	-1004.841430664063	-469.8157958984376	49.01728439331056	-1032.693603515625	-261.4628295898438	88.39157104492189	-1044.96875	-269.0496520996094	91.1077117919922	-1094.013427734375	-310.4176635742188	62.6404151916504	-1137.992309570313	-430.1359252929689	773.5459594726565	-678.4943237304689	-383.1065979003907	728.7137451171876	-671.5144653320314	-352.4091186523438	739.0466308593751	-678.8812866210939	-394.776092529297	643.7706298828126	-672.6394042968751	-375.7789916992188	489.4446716308595	-689.5969238281251	-319.1968383789063	477.7742004394532	-801.0253906250002	-305.4237060546876	342.0334472656251	-726.6442871093751	-365.4713439941407	265.3267517089844	-677.2836303710939	-323.7629394531251	260.4812927246094	-698.5657958984376	-321.7797851562501	213.5119018554688	-733.9654541015626	-391.9635314941407	86.78606414794923	-702.3737182617189	-342.8533325195313	113.3450927734375	-774.7246093750002	-413.9896850585939	40.45532608032227	-768.6832275390627	-224.9152069091797	100.1185150146485	-703.3541259765626	-242.0732574462891	97.84242248535159	-664.5336914062501	-283.8435363769532	61.38701629638673	-626.8226928710939	
1288	6.435	-328.5715942382813	1699.166015625	-875.0284423828127	-462.7119750976564	1570.449462890625	-949.4130859375002	-431.2444458007814	1606.505859375	-793.850769042969	-496.2521972656251	1459.35693359375	-890.3804321289065	-525.3410034179689	1137.070190429688	-887.0354003906252	-347.5639648437501	1401.37353515625	-883.337829589844	-375.6786193847657	1440.801879882813	-1043.913452148438	-402.3724670410157	1284.992431640625	-1208.698974609375	-370.4244689941407	1249.1103515625	-1194.0908203125	-394.6137695312501	1224.197631835938	-1243.513793945313	-388.0945129394532	1139.552734375	-1265.700073242188	-472.1295776367189	1132.00830078125	-1229.091918945313	-391.5797729492189	949.9021606445315	-1102.992309570313	-341.1274414062501	916.507507324219	-1148.501342773438	-351.4102172851563	941.5458984375002	-1053.771606445313	-389.4942626953126	1437.67333984375	-724.8845214843751	-431.7196044921876	1286.721801757813	-564.4531860351564	-403.743621826172	1245.861206054688	-573.0516357421876	-438.1478271484376	1226.534545898438	-526.8648071289064	-438.2527770996095	1156.496459960938	-503.6686401367189	-515.9200439453126	1133.387817382813	-529.7299804687501	-416.6987609863282	955.1710205078127	-673.9531860351564	-367.4448242187501	932.532897949219	-619.3387451171876	-358.5933227539063	953.5076293945315	-717.8041992187501	-360.2367858886719	950.8208007812502	-1007.021118164063	-367.6533508300782	958.784118652344	-761.0546875000001	-522.0558471679689	1035.173217773438	-891.3675537109377	-528.0627441406251	1003.147705078125	-919.3609008789065	-529.2305297851564	1004.588806152344	-862.1706542968752	-385.2058105468751	724.1544189453126	-1098.863525390625	-341.1627197265626	652.2963867187501	-1105.29345703125	-295.4949340820313	663.8805541992189	-1086.814819335938	-358.0931396484376	594.1277465820314	-1100.200073242188	-346.5854492187501	488.7739257812501	-1096.747680664063	-301.4479980468751	475.242889404297	-978.7993774414065	-299.1347351074219	361.6400146484376	-1069.158203125	-366.3278503417969	329.0529785156251	-1115.623779296875	-325.8133544921876	318.3271484375001	-1097.724487304688	-339.3201293945313	239.4887084960938	-1069.74169921875	-432.049530029297	101.119499206543	-1084.59033203125	-392.5151367187501	116.7014999389649	-1004.511535644531	-472.9051208496095	49.80134963989259	-1032.646728515625	-264.3681640625001	87.80696105957033	-1044.2802734375	-271.6900939941407	90.47188568115236	-1092.979614257813	-313.2210083007813	62.27858352661134	-1137.242797851563	-430.6994018554689	773.2673950195315	-679.0006103515626	-383.5285339355469	728.6890258789064	-671.7173461914064	-352.7874450683594	739.0729370117189	-678.9807739257814	-394.9815673828126	643.6175537109376	-672.7858276367189	-375.5427856445313	489.3450317382814	-689.4599609375001	-319.8550109863282	477.759979248047	-801.216491699219	-305.3878173828126	341.9487304687501	-726.6701660156251	-365.3384094238282	265.2244567871094	-677.1301879882814	-323.5081787109376	260.3998718261719	-698.3020019531251	-321.5267639160157	213.523666381836	-733.8119506835939	-391.9151916503907	86.79106903076173	-702.3186035156251	-343.3808898925782	113.5641860961914	-774.9825439453127	-413.8951110839845	40.46206283569337	-768.7620239257815	-224.6948242187501	99.76594543457034	-702.9415283203126	-242.0910339355469	97.56202697753909	-664.1917114257814	-283.9199829101563	61.11462783813478	-626.5772705078126	
1289	6.44	-329.1260070800782	1698.06201171875	-875.593933105469	-463.2855529785157	1569.571044921875	-950.2429809570315	-431.8841247558595	1605.78271484375	-795.2266235351565	-497.3390197753907	1458.460571289063	-891.6473388671877	-526.4313354492189	1136.1689453125	-888.594421386719	-348.7556762695313	1400.476684570313	-884.3071899414065	-376.2565917968751	1440.01904296875	-1044.823974609375	-402.2582092285157	1284.119995117188	-1209.8154296875	-370.3909606933594	1247.860595703125	-1194.359130859375	-394.5430603027345	1222.954833984375	-1244.061401367188	-387.7822265625001	1138.815307617188	-1266.607177734375	-471.9856567382814	1131.254272460938	-1230.070556640625	-391.5792236328126	949.2236328125002	-1103.73046875	-340.9584045410157	915.8045654296877	-1149.02197265625	-351.0682067871094	940.690124511719	-1054.141723632813	-391.1476135253907	1436.868530273438	-726.0260620117189	-433.6361083984376	1286.100708007813	-565.4583129882814	-405.6944274902345	1245.43994140625	-573.8432617187501	-440.1468200683595	1225.974853515625	-527.8511962890626	-440.3962402343751	1155.922973632813	-504.574432373047	-517.8929443359376	1132.705444335938	-530.8807373046876	-417.893524169922	954.7418212890627	-674.7810058593751	-368.9361572265626	931.9160766601565	-619.7639160156251	-359.5885620117188	953.1346435546877	-718.2363281250001	-360.3377990722657	950.003112792969	-1007.72998046875	-368.4628601074219	958.5938110351565	-761.7315673828126	-522.8023071289064	1034.226196289063	-892.408874511719	-528.6124877929689	1002.230285644531	-920.4954223632815	-529.8333129882814	1003.700927734375	-863.339782714844	-384.3761596679689	722.9453735351564	-1099.421630859375	-340.0460815429688	651.3461303710939	-1105.655029296875	-294.3677062988282	663.0982666015626	-1087.364990234375	-357.3507385253907	593.2514038085939	-1100.774169921875	-345.1056213378907	488.050018310547	-1097.228515625	-300.2209777832032	474.5231933593751	-979.5037841796877	-298.8816528320313	360.4775390625001	-1068.981689453125	-365.9993896484376	328.3041687011719	-1115.793579101563	-325.7739868164063	317.2182006835938	-1097.688720703125	-340.4263610839844	238.8571014404297	-1069.6083984375	-434.5284118652345	101.4391098022461	-1084.629516601563	-395.3280334472657	116.9458541870117	-1004.309448242188	-476.2357788085939	50.51094818115236	-1032.828125	-267.2304382324219	86.90612030029298	-1043.095581054688	-274.4468994140626	89.63972473144533	-1092.001708984375	-315.6457519531251	61.59140777587892	-1136.590087890625	-431.2611389160157	773.0173339843752	-679.4375610351564	-384.0604248046876	728.5446166992189	-672.0596313476564	-353.2400817871094	739.0733642578126	-679.2102050781251	-395.204559326172	643.4771728515626	-672.9462890625001	-375.3183593750001	489.2777404785157	-689.3165893554689	-319.2080383300782	477.7655029296876	-800.948181152344	-304.7994079589844	341.8788452148438	-725.9953613281251	-365.1905822753907	265.0970153808594	-676.9936523437501	-323.7777404785157	260.4381103515626	-698.4055175781251	-321.1640930175782	213.7738189697266	-733.4980468750001	-391.8692932128907	86.72414398193361	-702.3190917968751	-341.9553222656251	113.0794372558594	-774.3103637695315	-413.7517089843751	40.57035446166993	-768.6978759765627	-224.3117980957032	99.21423339843753	-702.2534790039064	-242.1028900146485	97.16722106933597	-663.8663330078126	-283.9555664062501	60.87382888793947	-626.4202880859376	
1290	6.445	-329.6017761230469	1697.194213867188	-876.2661132812502	-463.9068603515626	1569.118041992188	-951.161560058594	-432.7342224121095	1604.930908203125	-795.8083496093752	-498.1444702148439	1457.704833984375	-892.9322509765627	-527.5214843750001	1135.347778320313	-890.1986083984377	-350.1239013671876	1399.734619140625	-885.4878540039065	-377.1418762207032	1439.303833007813	-1045.969848632813	-401.9222106933595	1283.345092773438	-1210.636840820313	-370.2436218261719	1246.983154296875	-1195.128784179688	-394.3267517089845	1222.166381835938	-1245.061279296875	-387.7532653808595	1137.953979492188	-1267.540283203125	-471.6853637695314	1130.158569335938	-1231.348754882813	-391.572235107422	948.5711669921877	-1104.53369140625	-340.9836425781251	915.0557861328127	-1149.906860351563	-350.8486328125001	940.075378417969	-1054.497436523438	-392.7089843750001	1436.092651367188	-726.9157714843751	-436.0308837890626	1285.462646484375	-566.6073608398439	-407.6275329589845	1244.86328125	-574.6901855468751	-442.1912536621095	1225.380004882813	-528.7832031250001	-442.4771423339845	1155.33642578125	-505.2876586914064	-519.8167724609376	1132.087524414063	-531.9535522460939	-419.3416137695314	954.1458129882815	-675.5805053710939	-370.4206542968751	931.5263671875002	-620.5241088867189	-362.5782165527344	952.0068359375002	-719.0059204101564	-360.8200988769532	949.3377685546877	-1008.594421386719	-369.7568664550782	958.262145996094	-762.5653076171876	-523.6586914062501	1033.232177734375	-893.9598388671877	-529.1981201171876	1001.003784179688	-921.8598632812502	-530.9378662109376	1002.689697265625	-864.5744628906252	-383.6114196777344	721.7940673828126	-1099.988037109375	-338.3304748535157	650.0750122070314	-1105.821655273438	-293.1904602050782	662.4824829101564	-1088.174926757813	-355.5008850097657	592.2504882812501	-1101.042602539063	-343.1790161132813	487.1039428710939	-1097.709228515625	-299.3379211425782	473.8242187500001	-979.911315917969	-298.8394775390626	359.2847595214844	-1068.56201171875	-365.7618713378907	327.7765197753907	-1115.963745117188	-325.9010925292969	316.3980712890626	-1097.575927734375	-340.9239501953126	238.0592803955079	-1068.956298828125	-436.6765136718751	101.420639038086	-1084.557495117188	-398.2431945800782	116.962890625	-1004.099426269531	-479.3799743652345	51.00628662109376	-1032.929443359375	-270.3555908203126	85.81047821044923	-1041.907104492188	-277.2028808593751	88.53872680664064	-1090.920043945313	-318.5692749023438	61.04462814331056	-1135.95361328125	-431.8411254882814	772.7708129882815	-679.9431152343751	-384.4089660644532	728.4778442382814	-672.1823730468751	-353.8580932617188	738.8005371093751	-679.4536743164064	-395.4297180175782	643.2976684570314	-673.0935058593751	-375.1104125976563	489.1171264648439	-689.2056884765626	-317.7044677734376	477.4231872558595	-800.1945800781252	-304.3568115234376	341.7055053710938	-725.5291137695314	-365.1339721679688	264.9544067382813	-676.9141845703126	-323.6437072753907	260.3404541015626	-698.2447509765626	-320.8627929687501	213.353256225586	-733.1956176757814	-391.7337646484376	86.68516540527345	-702.2539062500001	-342.8561401367188	113.4272155761719	-774.7065429687502	-413.6360168457032	40.65699005126954	-768.6853027343752	-224.2197875976563	98.92862701416018	-701.9104614257814	-242.1016235351563	96.84722137451175	-663.5825805664064	-284.0083618164063	60.56320190429689	-626.2623901367189	
